<?xml version="1.0" encoding="utf-8"?>
<svg version="1.0" width="564.000000pt" height="564.000000pt" viewBox="0 0 564.000000 564.000000" preserveAspectRatio="xMidYMid meet" xmlns="http://www.w3.org/2000/svg">
  <g transform="translate(0.000000,564.000000) scale(0.100000,-0.100000)" fill="#000000" stroke="none">
    <path d="M3115 4133 c-363 -17 -611 -89 -645 -186 -7 -21 -10 -150 -10 -377 0 -190 1 -393 0 -452 l0 -108 -88 0 c-277 0 -536 -163 -662 -418 -57 -115 -75 -195 -74 -332 0 -145 15 -214 74 -335 137 -284 458 -458 768 -415 265 36 481 194 592 432 l31 65 222 6 c371 9 575 60 655 165 l27 35 3 854 c2 722 0 859 -12 887 -27 64 -155 120 -346 150 -94 15 -387 38 -445 34 -16 -1 -57 -3 -90 -5z m410 -124 c182 -19 382 -74 372 -103 -6 -18 -114 -57 -219 -77 -332 -64 -810 -46 -1040 41 -32 12 -60 25 -63 30 -11 18 59 49 164 74 214 51 505 64 786 35z m-760 -288 c336 -68 874 -47 1098 43 l57 24 0 -113 0 -113 -30 -26 c-121 -102 -696 -145 -1066 -80 -111 19 -219 56 -250 85 -23 21 -24 30 -24 135 l0 112 58 -24 c31 -12 102 -32 157 -43z m-167 -300 c107 -54 281 -81 563 -88 322 -8 562 20 696 82 31 14 57 25 59 25 2 0 4 -45 4 -99 l0 -100 -32 -25 c-85 -63 -271 -97 -580 -103 -325 -7 -565 21 -683 79 -73 37 -75 40 -75 150 0 54 2 98 5 98 3 0 22 -8 43 -19z m13 -370 c24 -11 89 -29 144 -40 341 -68 882 -49 1106 39 27 11 52 20 54 20 3 0 5 -49 5 -109 0 -122 -2 -126 -71 -162 -106 -53 -329 -83 -627 -84 l-234 0 -40 47 c-73 87 -201 170 -328 213 -63 21 -65 23 -68 58 -4 43 0 44 59 18z m-111 -145 c203 -37 374 -162 469 -345 53 -102 73 -185 73 -301 0 -113 -19 -196 -70 -300 -49 -101 -177 -230 -279 -283 -262 -136 -560 -90 -769 118 -130 129 -194 281 -194 460 0 110 20 197 65 290 130 267 414 413 705 361z m1391 -398 c-35 -31 -128 -62 -251 -84 -103 -18 -445 -40 -482 -31 -22 6 -29 18 -48 79 -12 40 -31 90 -41 110 l-19 38 195 0 c286 0 491 28 620 85 l50 21 3 -95 c3 -96 3 -96 -27 -123z m29 -182 c0 -82 -1 -85 -30 -110 -76 -63 -385 -116 -684 -116 l-79 0 7 46 c3 26 6 71 6 100 l0 54 139 0 c241 0 467 33 574 84 29 13 55 25 60 25 4 1 7 -37 7 -83z" style="stroke: rgba(255, 255, 255, 0.9); fill: rgb(255, 255, 255);"/>
    <path d="M2300 2760 c-175 -31 -324 -155 -391 -327 -27 -70 -36 -206 -20 -283 20 -92 68 -178 140 -249 202 -201 511 -202 712 -2 104 104 152 219 150 365 -1 198 -108 366 -286 451 -104 50 -198 63 -305 45z m223 -80 c218 -67 350 -307 293 -530 -57 -220 -277 -367 -497 -330 -183 31 -318 157 -365 343 -55 211 81 450 295 518 77 25 192 24 274 -1z" style="stroke: rgba(255, 255, 255, 0.9); fill: rgb(255, 255, 255);"/>
    <path d="M2332 2598 c-6 -6 -12 -26 -12 -42 0 -24 -8 -36 -36 -54 -49 -32 -78 -99 -69 -159 8 -58 43 -95 130 -141 39 -21 70 -44 70 -52 0 -25 -64 -25 -112 1 -50 28 -61 21 -87 -51 -18 -51 -18 -52 1 -72 11 -10 37 -25 59 -33 31 -10 40 -18 42 -42 5 -42 20 -53 71 -53 60 0 71 9 76 56 2 21 8 40 15 42 22 8 71 55 85 83 21 39 19 113 -4 158 -20 39 -65 73 -138 105 -24 11 -43 25 -43 33 0 18 44 17 85 -3 51 -24 66 -16 89 49 l21 58 -25 19 c-14 11 -37 22 -52 25 -22 5 -27 12 -30 43 l-3 37 -60 3 c-38 2 -65 -2 -73 -10z m78 -88 c0 -29 2 -31 64 -45 47 -10 19 -20 -49 -17 -58 3 -67 1 -90 -22 -49 -49 -30 -93 63 -140 90 -46 117 -76 117 -131 0 -49 -21 -78 -75 -104 -28 -13 -36 -23 -38 -49 -4 -41 -20 -42 -24 0 -3 29 -8 34 -50 46 -30 8 -48 19 -48 28 0 11 5 12 18 6 59 -31 148 -17 171 26 32 60 -2 112 -97 152 -66 28 -92 60 -92 112 0 42 21 70 78 100 25 14 32 23 32 48 0 18 4 29 10 25 6 -3 10 -19 10 -35z" style="stroke: rgba(255, 255, 255, 0.9); fill: rgb(255, 255, 255);"/>
  </g>
</svg>