<?xml version="1.0" encoding="utf-8"?>
<svg version="1.0" width="400.000000pt" height="300.000000pt" viewBox="0 0 400.000000 300.000000" preserveAspectRatio="xMidYMid meet" xmlns="http://www.w3.org/2000/svg">
  <g transform="translate(0.000000,300.000000) scale(0.100000,-0.100000)" fill="#000000" stroke="none">
    <path d="M1888 2220 c-127 -23 -221 -62 -323 -135 -71 -51 -105 -87 -167 -175 -32 -45 -60 -73 -92 -90 -46 -25 -64 -54 -52 -85 3 -9 -9 -30 -29 -52 -35 -39 -44 -70 -24 -90 8 -8 5 -22 -10 -51 -34 -66 -29 -88 27 -119 47 -26 48 -28 66 -105 57 -255 261 -465 521 -540 112 -31 278 -31 390 0 256 73 457 278 521 532 18 69 24 237 11 307 -7 40 -6 42 20 45 38 4 35 22 -3 26 -29 3 -34 9 -53 60 -78 216 -267 389 -493 452 -82 23 -239 33 -310 20z m331 -54 c201 -70 346 -202 432 -392 16 -35 29 -68 29 -74 0 -16 -76 -12 -90 5 -10 12 -36 15 -117 15 l-105 0 -55 39 c-76 55 -144 70 -220 48 -32 -9 -78 -18 -103 -21 l-45 -5 -27 50 c-16 27 -28 51 -28 54 0 3 16 5 35 5 24 0 35 5 35 15 0 11 -12 15 -50 15 -38 0 -50 4 -50 15 0 12 16 15 85 15 50 0 85 4 85 10 0 6 -39 10 -98 10 -104 0 -243 30 -294 64 -24 16 -29 16 -57 2 -17 -9 -35 -25 -41 -36 -11 -20 -40 -28 -40 -11 0 16 92 87 160 124 60 32 161 69 220 81 14 2 79 3 145 1 98 -2 134 -8 194 -29z m-599 -154 c0 -4 -15 -16 -32 -26 l-33 -19 24 26 c24 27 41 34 41 19z m40 -52 c9 -17 0 -25 -92 -79 -179 -104 -189 -111 -183 -122 4 -5 2 -23 -5 -39 -10 -23 -8 -34 9 -68 23 -45 36 -57 46 -42 4 6 -3 25 -14 43 -18 30 -19 36 -7 72 13 36 25 46 137 112 112 65 128 71 164 66 35 -4 44 -11 64 -45 16 -28 26 -37 33 -30 8 8 5 21 -10 45 -20 35 -15 57 13 57 12 0 135 -201 135 -221 0 -6 -9 -26 -20 -44 l-20 -32 -47 23 c-50 26 -138 33 -173 14 -15 -8 -22 -4 -39 25 -20 34 -41 46 -41 24 0 -6 8 -24 17 -39 16 -28 16 -29 -20 -69 -97 -107 -62 -274 70 -336 29 -14 53 -16 113 -12 l77 5 17 -36 c13 -26 20 -32 28 -24 9 9 7 21 -6 49 l-18 37 38 31 c21 16 66 58 100 93 l61 64 38 -69 c21 -37 57 -100 81 -139 24 -39 44 -78 44 -87 0 -9 -17 -28 -37 -41 -78 -50 -426 -246 -437 -246 -7 0 -35 39 -63 88 -44 77 -222 385 -384 666 -31 55 -55 104 -53 110 5 10 351 214 366 215 4 1 12 -8 18 -19z m93 3 c34 -7 35 -21 2 -29 -18 -4 -32 -1 -45 11 -25 22 -26 39 -2 30 9 -3 29 -9 45 -12z m-263 -6 c0 -2 -14 -16 -32 -33 -30 -28 -30 -17 0 19 13 15 32 23 32 14z m731 -179 c61 -21 118 -67 143 -117 35 -68 49 -158 37 -229 -12 -63 -69 -188 -99 -216 -19 -16 -21 -15 -52 41 -18 32 -44 78 -58 102 -24 40 -24 44 -7 37 11 -4 37 -10 58 -13 30 -5 37 -2 37 11 0 10 -9 16 -25 16 -41 0 -88 24 -123 64 -32 37 -33 39 -17 63 11 17 13 29 7 35 -7 7 -23 -10 -50 -49 -97 -143 -158 -181 -236 -149 -21 9 -36 19 -33 23 49 91 178 296 201 321 59 63 142 86 217 60z m-231 -28 c0 -5 -4 -10 -10 -10 -5 0 -10 5 -10 10 0 6 5 10 10 10 6 0 10 -4 10 -10z m593 -110 c23 -67 26 -202 8 -280 -18 -71 -63 -172 -90 -199 -19 -19 -33 -21 -121 -21 -55 0 -100 4 -100 8 0 5 10 17 21 28 34 30 89 120 110 181 26 76 26 195 -1 270 -11 32 -20 61 -20 66 0 4 39 6 88 5 l87 -3 18 -55z m-1224 -102 l82 -143 -110 110 c-61 60 -111 114 -111 119 0 11 40 56 50 56 4 0 44 -64 89 -142z m1338 95 c5 -16 8 -84 7 -153 -1 -108 -4 -136 -28 -207 -27 -84 -45 -105 -82 -98 -10 2 -24 4 -30 4 -7 1 -1 21 12 50 52 107 72 279 46 389 l-10 42 39 0 c34 0 40 -4 46 -27z m-851 1 c19 -9 36 -20 39 -24 3 -5 -24 -57 -60 -117 l-64 -108 22 -17 c12 -10 37 -20 55 -24 47 -9 48 -21 5 -39 -57 -24 -142 -16 -186 18 -42 32 -77 100 -77 148 0 40 29 107 56 131 56 49 145 63 210 32z m-496 -200 c126 -128 131 -127 -62 -18 -48 27 -90 54 -92 60 -3 8 30 74 38 74 1 0 53 -52 116 -116z m72 -129 l113 -65 104 -180 c78 -134 110 -182 127 -186 18 -5 77 25 242 120 l219 126 140 0 c113 0 143 3 153 15 12 14 100 22 100 9 0 -3 -14 -26 -32 -52 -94 -136 -234 -239 -393 -288 -85 -26 -305 -26 -390 0 -186 57 -348 192 -439 365 -36 69 -77 201 -62 201 3 0 55 -29 118 -65z" style="fill: rgb(204, 219, 144);"/>
    <path d="M2060 1960 c0 -5 14 -10 30 -10 17 0 30 5 30 10 0 6 -13 10 -30 10 -16 0 -30 -4 -30 -10z" style="fill: rgb(204, 219, 144);"/>
    <path d="M2090 1323 c0 -5 9 -23 20 -41 15 -25 18 -37 10 -52 -5 -10 -10 -27 -10 -37 0 -13 -39 -40 -128 -90 -115 -65 -131 -71 -168 -66 -33 4 -44 11 -59 39 -10 19 -24 34 -32 34 -18 0 -16 -8 10 -55 17 -30 30 -41 52 -43 17 -2 36 -8 42 -14 9 -7 56 15 167 79 144 82 154 90 149 114 -3 15 1 30 10 37 13 11 12 18 -10 57 -14 25 -31 45 -39 45 -8 0 -14 -3 -14 -7z" style="fill: rgb(204, 219, 144);"/>
    <path d="M2415 1266 c-21 -21 -24 -29 -15 -46 17 -32 44 -41 69 -24 28 20 25 61 -6 81 -20 14 -24 13 -48 -11z m44 -42 c-9 -11 -15 -12 -25 -3 -11 9 -12 15 -3 25 9 11 15 12 25 3 11 -9 12 -15 3 -25z" style="fill: rgb(204, 219, 144);"/>
    <path d="M1160 1802 c0 -25 25 -58 34 -44 7 12 -13 62 -26 62 -4 0 -8 -8 -8 -18z" style="fill: rgb(204, 219, 144);"/>
    <path d="M1045 1750 c7 -12 79 -50 95 -50 23 0 8 21 -30 40 -42 21 -75 27 -65 10z" style="fill: rgb(204, 219, 144);"/>
    <path d="M2815 1680 c-8 -13 20 -24 41 -16 20 8 9 26 -16 26 -10 0 -22 -5 -25 -10z" style="fill: rgb(204, 219, 144);"/>
    <path d="M1074 1636 c-10 -8 -16 -17 -12 -21 9 -10 61 9 66 23 5 17 -30 15 -54 -2z" style="fill: rgb(204, 219, 144);"/>
  </g>
</svg>