<?xml version="1.0" encoding="utf-8"?>
<svg version="1.0" width="563.000000pt" height="375.000000pt" viewBox="0 0 563.000000 375.000000" preserveAspectRatio="xMidYMid meet" xmlns="http://www.w3.org/2000/svg">
  <g transform="translate(0.000000,375.000000) scale(0.100000,-0.100000)" fill="#000000" stroke="none">
    <path d="M2702 3279 c-72 -11 -161 -42 -194 -68 l-22 -19 52 -177 c29 -98 51 -179 49 -181 -2 -2 -30 51 -62 116 -33 66 -65 120 -73 120 -41 0 -152 -81 -178 -131 -31 -61 -22 -79 110 -236 68 -82 141 -168 163 -192 l39 -44 34 19 c28 15 58 19 144 20 l110 1 60 86 c33 48 61 85 63 83 2 -2 -12 -40 -32 -85 -19 -46 -35 -86 -35 -91 0 -4 23 -14 51 -20 42 -10 53 -10 64 1 67 72 299 349 306 367 13 34 11 79 -5 111 -19 35 -94 103 -109 98 -7 -2 -34 -36 -62 -75 -27 -39 -53 -71 -56 -72 -4 0 20 64 52 143 l59 142 -21 17 c-70 58 -329 92 -507 67z" style="fill: rgb(255, 255, 255);"/>
    <path d="M2765 2422 c-12 -2 -46 -39 -82 -90 -35 -48 -75 -100 -89 -117 l-26 -30 20 35 c11 19 38 68 62 108 23 41 39 76 35 80 -11 11 -115 -49 -195 -112 -308 -243 -604 -642 -718 -968 -63 -178 -77 -336 -42 -472 25 -100 61 -165 132 -242 68 -73 114 -95 253 -123 192 -39 305 -46 700 -46 395 0 508 7 700 46 140 28 185 50 254 124 100 108 141 222 141 395 0 113 -19 209 -65 340 -136 379 -532 872 -826 1030 -50 26 -89 38 -89 26 0 -2 11 -53 25 -114 14 -61 25 -114 25 -119 0 -4 -29 52 -65 125 -71 146 -62 138 -150 124z m83 -405 c6 -7 12 -34 14 -61 l3 -49 60 -17 c104 -29 151 -64 194 -145 43 -81 13 -165 -58 -165 -49 0 -62 10 -91 75 -27 60 -68 105 -96 105 -11 0 -14 -28 -14 -139 l0 -138 85 -28 c100 -32 170 -87 205 -160 33 -67 30 -179 -5 -250 -43 -90 -134 -156 -238 -173 l-42 -7 -3 -60 c-3 -83 -9 -102 -31 -108 -39 -10 -53 15 -59 96 -4 73 -6 77 -28 77 -36 0 -127 37 -173 70 -82 60 -134 180 -107 245 16 38 42 55 83 55 44 0 68 -23 92 -88 11 -33 31 -71 42 -86 20 -25 77 -62 84 -54 3 3 7 255 5 306 0 6 -5 12 -11 12 -28 0 -167 67 -200 97 -77 70 -102 221 -51 318 40 78 124 135 220 151 41 6 42 8 42 45 0 58 15 89 44 89 13 0 28 -6 34 -13z" style="fill: rgb(255, 255, 255);"/>
    <path d="M2719 1747 c-91 -48 -91 -166 -1 -215 24 -13 45 -22 47 -20 6 5 8 248 3 254 -3 2 -25 -6 -49 -19z" style="fill: rgb(255, 255, 255);"/>
    <path d="M2860 1149 l0 -150 23 6 c78 24 133 99 122 165 -9 52 -30 77 -85 105 -27 14 -52 25 -55 25 -3 0 -5 -68 -5 -151z" style="fill: rgb(255, 255, 255);"/>
  </g>
</svg>